<svg width="27" height="27" viewBox="0 0 27 27" fill="none" xmlns="http://www.w3.org/2000/svg">
<path d="M23.719 24.8415H4.21904C3.77487 24.8415 3.40654 24.4732 3.40654 24.029C3.40654 23.5849 3.77487 23.2165 4.21904 23.2165H23.719C24.1632 23.2165 24.5315 23.5849 24.5315 24.029C24.5315 24.4732 24.1632 24.8415 23.719 24.8415Z" fill="#72C347"/>
<path d="M7.03568 21.5915H5.30237C4.26237 21.5915 3.40654 20.7357 3.40654 19.6957V10.3574C3.40654 9.31738 4.26237 8.46155 5.30237 8.46155H7.03568C8.07568 8.46155 8.93151 9.31738 8.93151 10.3574V19.6957C8.93151 20.7357 8.07568 21.5915 7.03568 21.5915ZM5.30237 10.0757C5.15071 10.0757 5.03154 10.1949 5.03154 10.3465V19.6957C5.03154 19.8474 5.15071 19.9665 5.30237 19.9665H7.03568C7.18735 19.9665 7.30651 19.8474 7.30651 19.6957V10.3574C7.30651 10.2057 7.18735 10.0865 7.03568 10.0865H5.30237V10.0757Z" fill="#72C347"/>
<path d="M14.8357 21.5915H13.1024C12.0624 21.5915 11.2065 20.7357 11.2065 19.6957V6.90152C11.2065 5.86152 12.0624 5.00569 13.1024 5.00569H14.8357C15.8757 5.00569 16.7315 5.86152 16.7315 6.90152V19.6957C16.7315 20.7357 15.8757 21.5915 14.8357 21.5915ZM13.1024 6.63069C12.9507 6.63069 12.8315 6.74986 12.8315 6.90152V19.6957C12.8315 19.8474 12.9507 19.9665 13.1024 19.9665H14.8357C14.9873 19.9665 15.1065 19.8474 15.1065 19.6957V6.90152C15.1065 6.74986 14.9873 6.63069 14.8357 6.63069H13.1024Z" fill="#72C347"/>
<path d="M22.6356 21.5915H20.9023C19.8623 21.5915 19.0064 20.7357 19.0064 19.6957V3.44571C19.0064 2.40571 19.8623 1.54988 20.9023 1.54988H22.6356C23.6756 1.54988 24.5314 2.40571 24.5314 3.44571V19.6957C24.5314 20.7357 23.6756 21.5915 22.6356 21.5915ZM20.9023 3.17488C20.7506 3.17488 20.6314 3.29405 20.6314 3.44571V19.6957C20.6314 19.8474 20.7506 19.9665 20.9023 19.9665H22.6356C22.7872 19.9665 22.9064 19.8474 22.9064 19.6957V3.44571C22.9064 3.29405 22.7872 3.17488 22.6356 3.17488H20.9023Z" fill="#72C347"/>
</svg>
